<svg width="32" height="32" viewBox="0 0 32 32" fill="none" xmlns="http://www.w3.org/2000/svg">
<ellipse cx="16" cy="27" rx="16" ry="5" fill="#2BB639"/>
<path fill-rule="evenodd" clip-rule="evenodd" d="M16 31C24.2843 31 31 24.2843 31 16C31 7.71573 24.2843 1 16 1C7.71573 1 1 7.71573 1 16C1 24.2843 7.71573 31 16 31ZM16 32C24.8366 32 32 24.8366 32 16C32 7.16344 24.8366 0 16 0C7.16344 0 0 7.16344 0 16C0 24.8366 7.16344 32 16 32Z" fill="#121212"/>
<path fill-rule="evenodd" clip-rule="evenodd" d="M19.3063 26.9626C20.3401 24.2057 21 20.3301 21 16C21 11.6699 20.3401 7.79426 19.3063 5.03742C18.788 3.6553 18.195 2.60629 17.5872 1.92077C16.9784 1.23408 16.4397 1 16 1C15.5603 1 15.0216 1.23408 14.4128 1.92077C13.805 2.60629 13.212 3.6553 12.6937 5.03742C11.6599 7.79426 11 11.6699 11 16C11 20.3301 11.6599 24.2057 12.6937 26.9626C13.212 28.3447 13.805 29.3937 14.4128 30.0792C15.0216 30.7659 15.5603 31 16 31C16.4397 31 16.9784 30.7659 17.5872 30.0792C18.195 29.3937 18.788 28.3447 19.3063 26.9626ZM16 32C19.3137 32 22 24.8366 22 16C22 7.16344 19.3137 0 16 0C12.6863 0 10 7.16344 10 16C10 24.8366 12.6863 32 16 32Z" fill="#121212"/>
<path fill-rule="evenodd" clip-rule="evenodd" d="M26.9626 12.6937C24.2057 11.6599 20.3301 11 16 11C11.6699 11 7.79426 11.6599 5.03742 12.6937C3.6553 13.212 2.60629 13.805 1.92077 14.4128C1.23408 15.0216 1 15.5603 1 16C1 16.4397 1.23408 16.9784 1.92077 17.5872C2.60629 18.195 3.6553 18.788 5.03742 19.3063C7.79426 20.3401 11.6699 21 16 21C20.3301 21 24.2057 20.3401 26.9626 19.3063C28.3447 18.788 29.3937 18.195 30.0792 17.5872C30.7659 16.9784 31 16.4397 31 16C31 15.5603 30.7659 15.0216 30.0792 14.4128C29.3937 13.805 28.3447 13.212 26.9626 12.6937ZM32 16C32 12.6863 24.8366 10 16 10C7.16344 10 0 12.6863 0 16C0 19.3137 7.16344 22 16 22C24.8366 22 32 19.3137 32 16Z" fill="#121212"/>
</svg>
