<svg width="32" height="32" viewBox="0 0 32 32" fill="none" xmlns="http://www.w3.org/2000/svg">
<ellipse cx="16" cy="27" rx="16" ry="5" fill="#2BB639"/>
<path fill-rule="evenodd" clip-rule="evenodd" d="M26.6066 26.6066C32.4644 20.7487 32.4644 11.2513 26.6066 5.3934C20.7487 -0.464466 11.2512 -0.464466 5.39337 5.3934C-0.464491 11.2513 -0.464491 20.7487 5.39337 26.6066C11.2512 32.4645 20.7487 32.4645 26.6066 26.6066ZM27.3137 27.3137C33.5621 21.0653 33.5621 10.9347 27.3137 4.68629C21.0653 -1.5621 10.9347 -1.5621 4.68627 4.68629C-1.56212 10.9347 -1.56212 21.0653 4.68627 27.3137C10.9347 33.5621 21.0653 33.5621 27.3137 27.3137Z" fill="#121212"/>
<path fill-rule="evenodd" clip-rule="evenodd" d="M26.5061 26.5065C30.0208 22.9918 30.0208 17.2933 26.5061 13.7786C22.9914 10.2639 17.2929 10.2639 13.7782 13.7786C10.2635 17.2933 10.2635 22.9918 13.7782 26.5065C17.2929 30.0213 22.9914 30.0213 26.5061 26.5065ZM27.2132 27.2136C31.1184 23.3084 31.1184 16.9768 27.2132 13.0715C23.308 9.16627 16.9763 9.16627 13.0711 13.0715C9.16582 16.9768 9.16582 23.3084 13.0711 27.2136C16.9763 31.1189 23.308 31.1189 27.2132 27.2136Z" fill="#121212"/>
<path fill-rule="evenodd" clip-rule="evenodd" d="M26.9603 27.6675L5.03996 5.74715L5.74707 5.04004L27.6674 26.9603L26.9603 27.6675Z" fill="#121212"/>
</svg>
