<svg width="32" height="32" viewBox="0 0 32 32" fill="none" xmlns="http://www.w3.org/2000/svg">
<ellipse cx="16" cy="26" rx="16" ry="5" fill="#2BB639"/>
<path fill-rule="evenodd" clip-rule="evenodd" d="M1.87031 21.4966C1.17278 22.0377 1 22.4697 1 22.75C1 23.0303 1.17278 23.4623 1.87031 24.0034C2.55474 24.5344 3.60762 25.0559 4.99806 25.5122C7.76811 26.4211 11.658 27 16 27C20.342 27 24.2319 26.4211 27.0019 25.5122C28.3924 25.0559 29.4453 24.5344 30.1297 24.0034C30.8272 23.4623 31 23.0303 31 22.75C31 22.4697 30.8272 22.0377 30.1297 21.4966C29.4453 20.9656 28.3924 20.4441 27.0019 19.9878C24.2319 19.0789 20.342 18.5 16 18.5C11.658 18.5 7.76811 19.0789 4.99806 19.9878C3.60762 20.4441 2.55474 20.9656 1.87031 21.4966ZM16 17.5C7.16344 17.5 0 19.8505 0 22.75C0 25.6495 7.16344 28 16 28C24.8366 28 32 25.6495 32 22.75C32 19.8505 24.8366 17.5 16 17.5Z" fill="#121212"/>
<path fill-rule="evenodd" clip-rule="evenodd" d="M5.93345 12.4107C3.39206 14.0415 2 16.1736 2 18.375C2 20.5764 3.39206 22.7085 5.93345 24.3393C8.46393 25.963 12.0203 27 16 27C19.9797 27 23.5361 25.963 26.0666 24.3393C28.6079 22.7085 30 20.5764 30 18.375C30 16.1736 28.6079 14.0415 26.0666 12.4107C23.5361 10.787 19.9797 9.75 16 9.75C12.0203 9.75 8.46393 10.787 5.93345 12.4107ZM16 8.75C7.71573 8.75 1 13.0593 1 18.375C1 23.6907 7.71573 28 16 28C24.2843 28 31 23.6907 31 18.375C31 13.0593 24.2843 8.75 16 8.75Z" fill="#121212"/>
<path fill-rule="evenodd" clip-rule="evenodd" d="M16 1C8.8203 1 3 6.8203 3 14C3 21.1797 8.8203 27 16 27C23.1797 27 29 21.1797 29 14C29 6.8203 23.1797 1 16 1ZM16 0C8.26801 0 2 6.26801 2 14C2 21.732 8.26801 28 16 28C23.732 28 30 21.732 30 14C30 6.26801 23.732 0 16 0Z" fill="#121212"/>
</svg>
