<svg width="32" height="32" viewBox="0 0 32 32" fill="none" xmlns="http://www.w3.org/2000/svg">
<ellipse cx="16" cy="26" rx="16" ry="5" fill="#2BB639"/>
<path fill-rule="evenodd" clip-rule="evenodd" d="M28 4.5C28 2.567 26.433 1 24.5 1C22.567 1 21 2.567 21 4.5C21 6.433 22.567 8 24.5 8C26.433 8 28 6.433 28 4.5ZM29 4.5C29 2.01472 26.9853 0 24.5 0C22.0147 0 20 2.01472 20 4.5C20 6.98528 22.0147 9 24.5 9C26.9853 9 29 6.98528 29 4.5Z" fill="#121212"/>
<path fill-rule="evenodd" clip-rule="evenodd" d="M29 18.5C29 12.701 24.299 8 18.5 8C12.701 8 8 12.701 8 18.5C8 24.299 12.701 29 18.5 29C24.299 29 29 24.299 29 18.5ZM30 18.5C30 12.1487 24.8513 7 18.5 7C12.1487 7 7 12.1487 7 18.5C7 24.8513 12.1487 30 18.5 30C24.8513 30 30 24.8513 30 18.5Z" fill="#121212"/>
<path fill-rule="evenodd" clip-rule="evenodd" d="M17 13C17 8.58172 13.4183 5 9 5C4.58172 5 1 8.58172 1 13C1 17.4183 4.58172 21 9 21C13.4183 21 17 17.4183 17 13ZM18 13C18 8.02944 13.9706 4 9 4C4.02944 4 0 8.02944 0 13C0 17.9706 4.02944 22 9 22C13.9706 22 18 17.9706 18 13Z" fill="#121212"/>
</svg>
