<svg width="32" height="32" viewBox="0 0 32 32" fill="none" xmlns="http://www.w3.org/2000/svg">
<ellipse cx="16" cy="26" rx="16" ry="5" fill="#2BB639"/>
<path fill-rule="evenodd" clip-rule="evenodd" d="M30.1484 20.1419C30.8528 19.6215 31 19.2241 31 19C31 18.7759 30.8528 18.3785 30.1484 17.8581C29.4636 17.3521 28.4088 16.8544 27.0154 16.4189C24.2406 15.5518 20.3459 15 16 15C11.6541 15 7.75936 15.5518 4.98457 16.4189C3.59122 16.8544 2.53639 17.3521 1.8516 17.8581C1.14723 18.3785 1 18.7759 1 19C1 19.2241 1.14723 19.6215 1.8516 20.1419C2.53639 20.6479 3.59122 21.1456 4.98457 21.5811C7.75936 22.4482 11.6541 23 16 23C20.3459 23 24.2406 22.4482 27.0154 21.5811C28.4088 21.1456 29.4636 20.6479 30.1484 20.1419ZM16 24C24.8366 24 32 21.7614 32 19C32 16.2386 24.8366 14 16 14C7.16344 14 0 16.2386 0 19C0 21.7614 7.16344 24 16 24Z" fill="#121212"/>
<path fill-rule="evenodd" clip-rule="evenodd" d="M30.1484 13.1419C30.8528 12.6215 31 12.2241 31 12C31 11.7759 30.8528 11.3785 30.1484 10.8581C29.4636 10.3521 28.4088 9.85437 27.0154 9.41895C24.2406 8.55182 20.3459 8 16 8C11.6541 8 7.75936 8.55182 4.98457 9.41895C3.59122 9.85437 2.53639 10.3521 1.8516 10.8581C1.14723 11.3785 1 11.7759 1 12C1 12.2241 1.14723 12.6215 1.8516 13.1419C2.53639 13.6479 3.59122 14.1456 4.98457 14.5811C7.75936 15.4482 11.6541 16 16 16C20.3459 16 24.2406 15.4482 27.0154 14.5811C28.4088 14.1456 29.4636 13.6479 30.1484 13.1419ZM16 17C24.8366 17 32 14.7614 32 12C32 9.23858 24.8366 7 16 7C7.16344 7 0 9.23858 0 12C0 14.7614 7.16344 17 16 17Z" fill="#121212"/>
<path fill-rule="evenodd" clip-rule="evenodd" d="M30.1484 6.14194C30.8528 5.62153 31 5.22411 31 5C31 4.77589 30.8528 4.37847 30.1484 3.85806C29.4636 3.35212 28.4088 2.85437 27.0154 2.41895C24.2406 1.55182 20.3459 1 16 1C11.6541 1 7.75936 1.55182 4.98457 2.41895C3.59122 2.85437 2.53639 3.35212 1.8516 3.85806C1.14723 4.37847 1 4.77589 1 5C1 5.22411 1.14723 5.62153 1.8516 6.14194C2.53639 6.64788 3.59122 7.14563 4.98457 7.58105C7.75936 8.44818 11.6541 9 16 9C20.3459 9 24.2406 8.44818 27.0154 7.58105C28.4088 7.14563 29.4636 6.64788 30.1484 6.14194ZM16 10C24.8366 10 32 7.76142 32 5C32 2.23858 24.8366 0 16 0C7.16344 0 0 2.23858 0 5C0 7.76142 7.16344 10 16 10Z" fill="#121212"/>
</svg>
