<svg width="32" height="32" viewBox="0 0 32 32" fill="none" xmlns="http://www.w3.org/2000/svg">
<ellipse cx="16" cy="27" rx="16" ry="5" fill="#2BB639"/>
<path fill-rule="evenodd" clip-rule="evenodd" d="M16 31C24.2843 31 31 24.2843 31 16C31 7.71573 24.2843 1 16 1C7.71573 1 1 7.71573 1 16C1 24.2843 7.71573 31 16 31ZM16 32C24.8366 32 32 24.8366 32 16C32 7.16344 24.8366 0 16 0C7.16344 0 0 7.16344 0 16C0 24.8366 7.16344 32 16 32Z" fill="#121212"/>
<path fill-rule="evenodd" clip-rule="evenodd" d="M18.7962 10.5279L16.0001 6L13.2039 10.5279L8.3916 11.5279L11.501 15.5L11.2978 20.4721L16.0001 18.0557L20.7023 20.4721L20.501 15.5L23.6085 11.5279L18.7962 10.5279ZM21.8291 12.1795L18.1714 11.4194L16.0001 7.90323L13.8287 11.4194L10.1715 12.1794L12.5152 15.1733L12.367 18.7984L16.0001 16.9314L19.6337 18.7987L19.4869 15.1733L21.8291 12.1795Z" fill="#121212"/>
<path fill-rule="evenodd" clip-rule="evenodd" d="M16 1C8.8203 1 3 6.8203 3 14C3 21.1797 8.8203 27 16 27C23.1797 27 29 21.1797 29 14C29 6.8203 23.1797 1 16 1ZM16 0C8.26801 0 2 6.26801 2 14C2 21.732 8.26801 28 16 28C23.732 28 30 21.732 30 14C30 6.26801 23.732 0 16 0Z" fill="#121212"/>
</svg>
