<svg width="32" height="32" viewBox="0 0 32 32" fill="none" xmlns="http://www.w3.org/2000/svg">
<ellipse cx="16" cy="27" rx="16" ry="5" fill="#2BB639"/>
<path fill-rule="evenodd" clip-rule="evenodd" d="M16 31C24.2843 31 31 24.2843 31 16C31 7.71573 24.2843 1 16 1C7.71573 1 1 7.71573 1 16C1 24.2843 7.71573 31 16 31ZM16 32C24.8366 32 32 24.8366 32 16C32 7.16344 24.8366 0 16 0C7.16344 0 0 7.16344 0 16C0 24.8366 7.16344 32 16 32Z" fill="#121212"/>
<path fill-rule="evenodd" clip-rule="evenodd" d="M16 31C19.3137 31 22 28.3137 22 25C22 21.6863 19.3137 19 16 19C12.6863 19 10 21.6863 10 25C10 28.3137 12.6863 31 16 31ZM16 32C19.866 32 23 28.866 23 25C23 21.134 19.866 18 16 18C12.134 18 9 21.134 9 25C9 28.866 12.134 32 16 32Z" fill="#121212"/>
<path fill-rule="evenodd" clip-rule="evenodd" d="M16 31C22.0751 31 27 26.0751 27 20C27 13.9249 22.0751 9 16 9C9.92487 9 5 13.9249 5 20C5 26.0751 9.92487 31 16 31ZM16 32C22.6274 32 28 26.6274 28 20C28 13.3726 22.6274 8 16 8C9.37258 8 4 13.3726 4 20C4 26.6274 9.37258 32 16 32Z" fill="#121212"/>
</svg>
