<svg width="32" height="32" viewBox="0 0 32 32" fill="none" xmlns="http://www.w3.org/2000/svg">
<ellipse cx="16" cy="27" rx="16" ry="5" fill="#2BB639"/>
<path fill-rule="evenodd" clip-rule="evenodd" d="M16 31C24.2843 31 31 24.2843 31 16C31 7.71573 24.2843 1 16 1C7.71573 1 1 7.71573 1 16C1 24.2843 7.71573 31 16 31ZM16 32C24.8366 32 32 24.8366 32 16C32 7.16344 24.8366 0 16 0C7.16344 0 0 7.16344 0 16C0 24.8366 7.16344 32 16 32Z" fill="#121212"/>
<path fill-rule="evenodd" clip-rule="evenodd" d="M16 31C22.6274 31 28 25.6274 28 19C28 12.3726 22.6274 7 16 7C9.37258 7 4 12.3726 4 19C4 25.6274 9.37258 31 16 31ZM16 32C23.1797 32 29 26.1797 29 19C29 11.8203 23.1797 6 16 6C8.8203 6 3 11.8203 3 19C3 26.1797 8.8203 32 16 32Z" fill="#121212"/>
<path fill-rule="evenodd" clip-rule="evenodd" d="M21.408 17.2698L15.5072 23.1706L12.1173 19.7807L12.8244 19.0736L15.5072 21.7564L20.7009 16.5627L21.408 17.2698Z" fill="#121212"/>
</svg>
