<svg width="34" height="33" viewBox="0 0 34 33" fill="none" xmlns="http://www.w3.org/2000/svg">
<ellipse cx="17" cy="27" rx="16" ry="5" fill="#2BB639"/>
<path fill-rule="evenodd" clip-rule="evenodd" d="M5.83543 26.0583C8.67054 26.9443 12.6179 27.5 17 27.5C21.3821 27.5 25.3295 26.9443 28.1646 26.0583C29.5851 25.6144 30.6983 25.0962 31.4455 24.5441C32.2025 23.9848 32.5 23.4572 32.5 23H33.5C33.5 23.9235 32.902 24.7113 32.0398 25.3484C31.1677 25.9927 29.9377 26.5519 28.4628 27.0128C25.5071 27.9364 21.4545 28.5 17 28.5C12.5455 28.5 8.4929 27.9364 5.53715 27.0128C4.06226 26.5519 2.83231 25.9927 1.96024 25.3484C1.09796 24.7113 0.5 23.9235 0.5 23H1.5C1.5 23.4572 1.79747 23.9848 2.55448 24.5441C3.3017 25.0962 4.4149 25.6144 5.83543 26.0583Z" fill="#121212"/>
<path fill-rule="evenodd" clip-rule="evenodd" d="M7.9871 21.0689C10.2691 21.9465 13.4555 22.5 17 22.5C20.5445 22.5 23.7309 21.9465 26.0129 21.0689C27.1556 20.6294 28.046 20.1183 28.642 19.5763C29.2379 19.0344 29.5 18.501 29.5 18H30.5C30.5 18.8797 30.0345 19.6617 29.3148 20.3162C28.5952 20.9705 27.5818 21.5369 26.3719 22.0022C23.9488 22.9342 20.6352 23.5 17 23.5C13.3648 23.5 10.0512 22.9342 7.62812 22.0022C6.41824 21.5369 5.40483 20.9705 4.68522 20.3162C3.96546 19.6617 3.5 18.8797 3.5 18H4.5C4.5 18.501 4.76208 19.0344 5.35799 19.5763C5.95405 20.1183 6.84444 20.6294 7.9871 21.0689Z" fill="#121212"/>
<path fill-rule="evenodd" clip-rule="evenodd" d="M10.1146 15.3642C11.8518 16.059 14.2859 16.5 17 16.5C19.7141 16.5 22.1482 16.059 23.8854 15.3642C24.7553 15.0162 25.4258 14.6144 25.8706 14.1937C26.3143 13.7741 26.5 13.3705 26.5 13H27.5C27.5 13.7341 27.126 14.3828 26.5577 14.9203C25.9904 15.4567 25.1964 15.9168 24.2568 16.2927C22.3746 17.0455 19.8088 17.5 17 17.5C14.1913 17.5 11.6254 17.0455 9.74324 16.2927C8.80355 15.9168 8.00955 15.4567 7.4423 14.9203C6.87398 14.3828 6.5 13.7341 6.5 13H7.5C7.5 13.3705 7.68566 13.7741 8.1294 14.1937C8.5742 14.6144 9.24467 15.0162 10.1146 15.3642Z" fill="#121212"/>
<path fill-rule="evenodd" clip-rule="evenodd" d="M13.4646 3.82843L16.6465 0.646446C16.8418 0.451184 17.1584 0.451184 17.3536 0.646446L20.5356 3.82843C20.7309 4.02369 20.7309 4.34027 20.5356 4.53553C20.3404 4.7308 20.0238 4.7308 19.8285 4.53553L17.5001 2.20711V13H16.5001V2.20711L14.1717 4.53553C13.9764 4.7308 13.6598 4.7308 13.4646 4.53553C13.2693 4.34027 13.2693 4.02369 13.4646 3.82843Z" fill="#121212"/>
</svg>
