<svg width="32" height="32" viewBox="0 0 32 32" fill="none" xmlns="http://www.w3.org/2000/svg">
<ellipse cx="16" cy="27" rx="16" ry="5" fill="#2BB639"/>
<path fill-rule="evenodd" clip-rule="evenodd" d="M16 31C24.2843 31 31 24.2843 31 16C31 7.71573 24.2843 1 16 1C7.71573 1 1 7.71573 1 16C1 24.2843 7.71573 31 16 31ZM16 32C24.8366 32 32 24.8366 32 16C32 7.16344 24.8366 0 16 0C7.16344 0 0 7.16344 0 16C0 24.8366 7.16344 32 16 32Z" fill="#121212"/>
<path d="M8.23193 22.0003V11.5703H14.9519V12.6203H9.35193V16.2463H14.6719V17.2963H9.35193V20.9503H14.9519V22.0003H8.23193Z" fill="#121212"/>
<path d="M16.8042 22.0003V11.5703H17.7842L23.9022 20.3483H23.5242V11.5703H24.6442V22.0003H23.6642L17.5462 13.1663H17.9242V22.0003H16.8042Z" fill="#121212"/>
</svg>
