<svg width="32" height="32" viewBox="0 0 32 32" fill="none" xmlns="http://www.w3.org/2000/svg">
<ellipse cx="16" cy="27" rx="16" ry="5" fill="#2BB639"/>
<path fill-rule="evenodd" clip-rule="evenodd" d="M16 31C24.2843 31 31 24.2843 31 16C31 7.71573 24.2843 1 16 1C7.71573 1 1 7.71573 1 16C1 24.2843 7.71573 31 16 31ZM16 32C24.8366 32 32 24.8366 32 16C32 7.16344 24.8366 0 16 0C7.16344 0 0 7.16344 0 16C0 24.8366 7.16344 32 16 32Z" fill="#121212"/>
<path fill-rule="evenodd" clip-rule="evenodd" d="M16 31C22.6274 31 28 25.6274 28 19C28 12.3726 22.6274 7 16 7C9.37258 7 4 12.3726 4 19C4 25.6274 9.37258 31 16 31ZM16 32C23.1797 32 29 26.1797 29 19C29 11.8203 23.1797 6 16 6C8.8203 6 3 11.8203 3 19C3 26.1797 8.8203 32 16 32Z" fill="#121212"/>
<path fill-rule="evenodd" clip-rule="evenodd" d="M16 15C19.866 15 23 11.866 23 8C23 4.13401 19.866 1 16 1C12.134 1 9 4.13401 9 8C9 11.866 12.134 15 16 15ZM16 16C20.4183 16 24 12.4183 24 8C24 3.58172 20.4183 0 16 0C11.5817 0 8 3.58172 8 8C8 12.4183 11.5817 16 16 16Z" fill="#121212"/>
</svg>
