<svg width="33" height="32" viewBox="0 0 33 32" fill="none" xmlns="http://www.w3.org/2000/svg">
<ellipse cx="16" cy="27" rx="16" ry="5" fill="#2BB639"/>
<path fill-rule="evenodd" clip-rule="evenodd" d="M20.5 25C26.5751 25 31.5 20.0751 31.5 14C31.5 7.92487 26.5751 3 20.5 3C14.4249 3 9.5 7.92487 9.5 14C9.5 20.0751 14.4249 25 20.5 25ZM20.5 26C27.1274 26 32.5 20.6274 32.5 14C32.5 7.37258 27.1274 2 20.5 2C13.8726 2 8.5 7.37258 8.5 14C8.5 20.6274 13.8726 26 20.5 26Z" fill="#121212"/>
<path fill-rule="evenodd" clip-rule="evenodd" d="M8.5 16C12.6421 16 16 12.6421 16 8.5C16 4.35786 12.6421 1 8.5 1C4.35786 1 1 4.35786 1 8.5C1 12.6421 4.35786 16 8.5 16ZM8.5 17C13.1944 17 17 13.1944 17 8.5C17 3.80558 13.1944 0 8.5 0C3.80558 0 0 3.80558 0 8.5C0 13.1944 3.80558 17 8.5 17Z" fill="#121212"/>
<path fill-rule="evenodd" clip-rule="evenodd" d="M14.5 21C19.7467 21 24 16.7467 24 11.5C24 6.25329 19.7467 2 14.5 2C9.25329 2 5 6.25329 5 11.5C5 16.7467 9.25329 21 14.5 21ZM14.5 22C20.299 22 25 17.299 25 11.5C25 5.70101 20.299 1 14.5 1C8.70101 1 4 5.70101 4 11.5C4 17.299 8.70101 22 14.5 22Z" fill="#121212"/>
</svg>
