<svg width="32" height="32" viewBox="0 0 32 32" fill="none" xmlns="http://www.w3.org/2000/svg">
<ellipse cx="16" cy="27" rx="16" ry="5" fill="#2BB639"/>
<path fill-rule="evenodd" clip-rule="evenodd" d="M16 31C24.2843 31 31 24.2843 31 16C31 7.71573 24.2843 1 16 1C7.71573 1 1 7.71573 1 16C1 24.2843 7.71573 31 16 31ZM16 32C24.8366 32 32 24.8366 32 16C32 7.16344 24.8366 0 16 0C7.16344 0 0 7.16344 0 16C0 24.8366 7.16344 32 16 32Z" fill="#121212"/>
<path fill-rule="evenodd" clip-rule="evenodd" d="M26.7301 10.1803C24.023 8.23455 20.2325 7 16 7C11.7675 7 7.97704 8.23455 5.26993 10.1803C2.56124 12.1272 1 14.7284 1 17.5C1 20.2716 2.56124 22.8728 5.26993 24.8197C7.97704 26.7655 11.7675 28 16 28C20.2325 28 24.023 26.7655 26.7301 24.8197C29.4388 22.8728 31 20.2716 31 17.5C31 14.7284 29.4388 12.1272 26.7301 10.1803ZM32 17.5C32 11.1487 24.8366 6 16 6C7.16344 6 0 11.1487 0 17.5C0 23.8513 7.16344 29 16 29C24.8366 29 32 23.8513 32 17.5Z" fill="#121212"/>
<path d="M15.746 22.1679C15.0834 22.1679 14.4814 22.0419 13.94 21.7899C13.3987 21.5379 12.9414 21.2019 12.568 20.7819C12.1947 20.3526 11.9287 19.8813 11.77 19.3679L12.778 18.9899C13.0207 19.6993 13.3987 20.2406 13.912 20.6139C14.4254 20.9779 15.0367 21.1599 15.746 21.1599C16.194 21.1599 16.586 21.0899 16.922 20.9499C17.2674 20.8006 17.5334 20.5953 17.72 20.3339C17.9067 20.0726 18 19.7693 18 19.4239C18 18.9106 17.86 18.5139 17.58 18.2339C17.3 17.9539 16.8987 17.7393 16.376 17.5899L14.5 17.0299C13.7627 16.8153 13.1934 16.4559 12.792 15.9519C12.4 15.4479 12.204 14.8739 12.204 14.2299C12.204 13.6793 12.3394 13.1939 12.61 12.7739C12.8807 12.3446 13.2494 12.0086 13.716 11.7659C14.192 11.5233 14.7287 11.4019 15.326 11.4019C15.9514 11.4019 16.5114 11.5186 17.006 11.7519C17.51 11.9759 17.9347 12.2746 18.28 12.6479C18.6254 13.0213 18.8727 13.4366 19.022 13.8939L18.042 14.2859C17.818 13.6699 17.468 13.2033 16.992 12.8859C16.5254 12.5686 15.9747 12.4099 15.34 12.4099C14.9387 12.4099 14.584 12.4799 14.276 12.6199C13.9774 12.7599 13.744 12.9606 13.576 13.2219C13.408 13.4833 13.324 13.7913 13.324 14.1459C13.324 14.5753 13.4594 14.9626 13.73 15.3079C14.0007 15.6439 14.416 15.8959 14.976 16.0639L16.628 16.5539C17.4494 16.7966 18.07 17.1466 18.49 17.6039C18.91 18.0613 19.12 18.6353 19.12 19.3259C19.12 19.8859 18.9754 20.3806 18.686 20.8099C18.406 21.2299 18.0094 21.5613 17.496 21.8039C16.992 22.0466 16.4087 22.1679 15.746 22.1679ZM15.144 23.3999V10.1699H16.124V23.3999H15.144Z" fill="#121212"/>
</svg>
