<svg width="20" height="20" viewBox="0 0 20 20" fill="none" xmlns="http://www.w3.org/2000/svg">
<path fill-rule="evenodd" clip-rule="evenodd" d="M9.41693 0.141767C9.57755 0.059871 9.75249 0.0120462 9.93138 0.00112771C10.1545 -0.00822128 10.3764 0.0401265 10.5768 0.141767L17.5308 3.55507C17.7103 3.64316 17.8682 3.77188 17.9927 3.93162C18.1172 4.09137 18.2051 4.27802 18.2499 4.47766L19.9665 12.1706C20.0111 12.3699 20.0112 12.577 19.9667 12.7763C19.9223 12.9755 19.8345 13.1618 19.71 13.321L14.8998 19.4895C14.7746 19.6493 14.6161 19.7781 14.4362 19.8664C14.2562 19.9548 14.0593 20.0004 13.86 20H6.14193C5.94339 20.0005 5.74725 19.9553 5.56783 19.8677C5.3884 19.7801 5.23022 19.6523 5.10484 19.4937L0.290588 13.3281C0.264206 13.2934 0.239189 13.2573 0.215536 13.2198C0.117981 13.0669 0.0515879 12.8952 0.0203892 12.7151C-0.0108095 12.535 -0.00616306 12.3502 0.0340465 12.172L1.73841 4.48751C1.78319 4.28786 1.87111 4.10121 1.99562 3.94147C2.12014 3.78172 2.27804 3.65301 2.45755 3.56492L9.41693 0.141767ZM9.70205 2.76892C9.77861 2.67975 9.88608 2.62513 10.0013 2.61681L10.0082 2.62103C10.1234 2.62935 10.2309 2.68397 10.3074 2.77314C10.384 2.8623 10.4235 2.97889 10.4175 3.0978V3.22015C10.406 3.35712 10.3869 3.4933 10.3602 3.628C10.3199 3.88504 10.3039 4.14551 10.3125 4.40574C10.3291 4.49263 10.3781 4.56936 10.4489 4.61951C10.4493 4.62859 10.4503 4.64396 10.4515 4.66257C10.4544 4.7074 10.4585 4.77103 10.4585 4.81078C11.7756 4.93327 13.0049 5.54447 13.9177 6.53079L14.076 6.41406C14.161 6.42906 14.2485 6.41932 14.3284 6.38593C14.5265 6.2277 14.7093 6.05014 14.8743 5.85573C14.9596 5.75058 15.0507 5.65056 15.1472 5.55616L15.24 5.48022C15.2957 5.42242 15.3661 5.38204 15.4431 5.36375C15.5202 5.34546 15.6006 5.35 15.6753 5.37685C15.7499 5.4037 15.8156 5.45176 15.8649 5.51548C15.9141 5.57919 15.9449 5.65597 15.9536 5.73693C15.9623 5.81789 15.9486 5.89974 15.9141 5.97303C15.8795 6.04631 15.8256 6.10803 15.7585 6.15107L15.6671 6.22701C15.556 6.30316 15.4407 6.37266 15.3218 6.43516C15.1017 6.56356 14.8942 6.71382 14.7023 6.8838C14.6465 6.95129 14.6186 7.03864 14.6245 7.1271L14.4772 7.26774C15.2152 8.4017 15.5236 9.77548 15.3437 11.1283L15.5115 11.1789C15.5537 11.2568 15.6161 11.3211 15.6917 11.3646C15.9359 11.4317 16.1859 11.4741 16.4381 11.4911C16.5718 11.494 16.7053 11.5048 16.8379 11.5235L16.9607 11.5516C17.038 11.5619 17.1109 11.5943 17.1712 11.6451C17.2315 11.6958 17.2769 11.763 17.3021 11.8389C17.3273 11.9147 17.3314 11.9962 17.3141 12.0742C17.2968 12.1523 17.2586 12.2238 17.204 12.2808C17.1494 12.3377 17.0805 12.3778 17.0049 12.3966C16.9294 12.4154 16.8503 12.412 16.7765 12.387H16.7683C16.75 12.3819 16.7295 12.378 16.7099 12.3742C16.6914 12.3706 16.6737 12.3672 16.6591 12.3631C16.5318 12.3208 16.407 12.2711 16.2852 12.214C16.0507 12.1167 15.8076 12.0433 15.5593 11.9946C15.4733 11.9915 15.3895 12.0233 15.3259 12.0832L15.1485 12.0509C14.7471 13.3526 13.8965 14.4574 12.7578 15.1562C12.7774 15.2153 12.8007 15.2731 12.8274 15.3292C12.804 15.367 12.7883 15.4092 12.781 15.4534C12.7737 15.4976 12.7751 15.5429 12.7851 15.5865C12.8861 15.8252 13.0095 16.0532 13.1535 16.2672C13.2344 16.3766 13.3092 16.4907 13.3773 16.609L13.4319 16.7243C13.471 16.7932 13.4907 16.8719 13.4889 16.9516C13.4871 17.0313 13.4638 17.109 13.4217 17.1759C13.3795 17.2428 13.3202 17.2963 13.2502 17.3305C13.1803 17.3646 13.1025 17.378 13.0256 17.3693C12.9486 17.3605 12.8756 17.3299 12.8146 17.2808C12.7535 17.2317 12.707 17.1661 12.68 17.0914L12.6282 16.9817C12.5804 16.8529 12.5398 16.7214 12.5067 16.5879C12.4346 16.3384 12.3391 16.0968 12.2215 15.8664C12.1701 15.7953 12.0936 15.7479 12.0086 15.7342L11.9268 15.5697C10.6887 16.0531 9.3212 16.0496 8.08546 15.5598L7.98994 15.7356C7.92292 15.7464 7.86062 15.7778 7.81118 15.8256C7.70504 15.9567 7.64313 16.1444 7.57801 16.3418C7.5502 16.4261 7.52181 16.5121 7.48913 16.5963C7.45649 16.7299 7.41639 16.8613 7.36905 16.9901L7.3172 17.0998C7.29025 17.1746 7.24367 17.2402 7.18266 17.2892C7.12165 17.3383 7.0486 17.3689 6.97168 17.3777C6.89476 17.3865 6.81698 17.373 6.74703 17.3389C6.67708 17.3048 6.61772 17.2512 6.57557 17.1843C6.53342 17.1174 6.51014 17.0398 6.50833 16.96C6.50652 16.8803 6.52624 16.8016 6.56531 16.7327L6.61989 16.6174C6.68804 16.4987 6.76276 16.3841 6.84368 16.2743C6.99078 16.0528 7.1169 15.8173 7.22031 15.5711C7.2315 15.4885 7.21868 15.4043 7.18347 15.3292L7.25988 15.1646C6.11966 14.4704 5.26574 13.3697 4.85958 12.0706L4.67809 12.1029C4.60798 12.0514 4.52524 12.0212 4.43929 12.0157C4.19096 12.0644 3.94782 12.1378 3.71333 12.2351C3.5914 12.2893 3.46657 12.3363 3.33943 12.3757L3.22617 12.3898H3.21798C3.14418 12.4148 3.06507 12.4181 2.98954 12.3994C2.91401 12.3806 2.84507 12.3404 2.79046 12.2835C2.73587 12.2265 2.69777 12.155 2.68044 12.077C2.66312 11.999 2.66725 11.9175 2.69239 11.8417C2.71753 11.766 2.76266 11.699 2.82273 11.6482C2.88279 11.5975 2.9554 11.565 3.0324 11.5544H3.04605L3.15521 11.5263C3.28777 11.5076 3.42127 11.4968 3.55504 11.4939C3.80725 11.4769 4.05724 11.4345 4.30146 11.3674C4.37367 11.3199 4.43474 11.2565 4.48022 11.1817L4.65489 11.1297C4.46534 9.77584 4.7676 8.39753 5.50366 7.2593L5.3672 7.13695C5.36243 7.04805 5.33359 6.9623 5.28396 6.88942C5.09065 6.72068 4.88178 6.57183 4.66035 6.445C4.54148 6.38252 4.42621 6.31302 4.31511 6.23686L4.22914 6.16654C4.13426 6.0965 4.07021 5.99055 4.05102 5.87191C4.03184 5.75326 4.05909 5.63162 4.1268 5.53366C4.1666 5.48327 4.21737 5.44326 4.27498 5.41687C4.33259 5.39048 4.39543 5.37846 4.45839 5.38177C4.564 5.3865 4.66537 5.42593 4.74768 5.49428L4.84047 5.57023C4.93695 5.6646 5.02807 5.76462 5.11339 5.86979C5.28345 6.06207 5.47129 6.23682 5.67424 6.39156C5.7502 6.43292 5.83885 6.44201 5.92123 6.41687L6.07133 6.52657C6.80317 5.72537 7.75075 5.168 8.79231 4.9261C9.03991 4.86814 9.29116 4.82819 9.5442 4.80656L9.55375 4.62373C9.61889 4.56461 9.66625 4.4875 9.69021 4.40152C9.70119 4.14105 9.68748 3.8801 9.64927 3.62238C9.62258 3.48768 9.60344 3.3515 9.59196 3.21453V3.09358C9.58595 2.97467 9.62549 2.85808 9.70205 2.76892ZM9.48005 5.94448C9.33203 5.96108 9.18492 5.98544 9.0393 6.01746C8.25977 6.19795 7.54468 6.59932 6.97468 7.17632L8.76502 8.48427C8.8187 8.52451 8.88196 8.549 8.94807 8.55513C9.01419 8.56126 9.08067 8.5488 9.14046 8.51908C9.20024 8.48935 9.25109 8.44347 9.28758 8.38632C9.32408 8.32918 9.34485 8.2629 9.3477 8.19455H9.35725L9.48005 5.94448ZM13.0157 7.18336C12.3389 6.49991 11.4629 6.06458 10.5226 5.94433L10.6454 8.19314C10.6465 8.26391 10.6667 8.33296 10.7039 8.39244C10.7412 8.45192 10.7938 8.49946 10.8559 8.52963C10.918 8.55981 10.9871 8.57143 11.0553 8.56316C11.1235 8.55489 11.1881 8.52707 11.2417 8.48286L13.0157 7.18336ZM7.95991 9.52921L6.32241 8.02438V8.02297C5.82376 8.85936 5.60962 9.8431 5.71381 10.8189L7.81527 10.1958V10.1888C7.87927 10.1708 7.93733 10.1352 7.98326 10.0858C8.0292 10.0364 8.06129 9.97518 8.07613 9.90852C8.09097 9.84186 8.088 9.7723 8.06754 9.70725C8.04707 9.64219 8.00988 9.58407 7.95991 9.53906V9.52921ZM14.2943 10.8118C14.3853 9.8372 14.1654 8.85857 13.668 8.02438L13.6693 8.03L12.0455 9.52921C11.9955 9.57422 11.9583 9.63234 11.9379 9.6974C11.9174 9.76246 11.9144 9.83202 11.9293 9.89867C11.9441 9.96533 11.9762 10.0266 12.0221 10.076C12.0681 10.1253 12.1261 10.1609 12.1901 10.179V10.1874L14.2943 10.8118ZM10.3343 9.64876H9.66564L9.24808 10.1818L9.39 10.8526L9.99314 11.1508L10.5936 10.8526L10.7437 10.1832L10.3343 9.64876ZM11.8967 11.4771C11.8686 11.4737 11.8402 11.4737 11.8121 11.4771L11.8094 11.4841C11.7504 11.4876 11.6932 11.5057 11.6424 11.5368C11.5916 11.5679 11.5489 11.6111 11.5177 11.6628C11.4865 11.7145 11.4679 11.7732 11.4633 11.8338C11.4587 11.8945 11.4684 11.9555 11.4915 12.0115L12.3293 14.1042C13.1343 13.574 13.7447 12.7821 14.0637 11.854L11.8967 11.4771ZM8.34487 11.5342C8.29215 11.5041 8.23305 11.4879 8.17279 11.4869L8.1687 11.4911C8.14465 11.4887 8.12042 11.4887 8.09637 11.4911L5.94852 11.868C6.27021 12.7843 6.87532 13.5661 7.67062 14.0929L8.50438 12.0227V12.0143C8.52814 11.9572 8.53789 11.895 8.53278 11.8331C8.52767 11.7712 8.50785 11.7116 8.47508 11.6594C8.44231 11.6073 8.39759 11.5643 8.34487 11.5342ZM10.1827 12.4457C10.1234 12.4107 10.056 12.3933 9.98769 12.3954V12.4011C9.9241 12.4021 9.86188 12.4201 9.8071 12.4534C9.75232 12.4867 9.70687 12.5341 9.6752 12.5909L8.61901 14.5599C9.37537 14.8255 10.1885 14.8688 10.9675 14.685C11.1104 14.6516 11.2515 14.6107 11.3905 14.5627L10.3316 12.5937H10.3234C10.2906 12.532 10.242 12.4807 10.1827 12.4457Z" fill="#2BB639"/>
</svg>
