<svg width="20" height="20" viewBox="0 0 20 20" fill="none" xmlns="http://www.w3.org/2000/svg">
<path d="M9.8746 20C9.59899 20 9.34175 19.9265 9.10289 19.7979L6.65916 18.3463C6.29169 18.1442 6.47543 18.0707 6.58567 18.034C7.08176 17.8686 7.17363 17.8319 7.6881 17.5379C7.74322 17.5011 7.81672 17.5195 7.87184 17.5563L9.74598 18.6771C9.81948 18.7138 9.91135 18.7138 9.96647 18.6771L17.2977 14.4327C17.3712 14.396 17.4079 14.3225 17.4079 14.2306V5.76022C17.4079 5.66835 17.3712 5.59486 17.2977 5.55811L9.96647 1.33211C9.89297 1.29536 9.8011 1.29536 9.74598 1.33211L2.41479 5.55811C2.3413 5.59486 2.30455 5.68672 2.30455 5.76022V14.2306C2.30455 14.3041 2.3413 14.396 2.41479 14.4327L4.41755 15.5903C5.50161 16.1415 6.18144 15.4984 6.18144 14.8553V6.49518C6.18144 6.38493 6.27331 6.27469 6.40193 6.27469H7.339C7.44924 6.27469 7.55949 6.36656 7.55949 6.49518V14.8553C7.55949 16.3068 6.76941 17.152 5.39136 17.152C4.96876 17.152 4.63803 17.152 3.70096 16.6927L1.7717 15.5903C1.29398 15.3147 1 14.8002 1 14.249V5.77859C1 5.22738 1.29398 4.71291 1.7717 4.4373L9.10289 0.192926C9.56224 -0.0643086 10.187 -0.0643086 10.6463 0.192926L17.9775 4.4373C18.4552 4.71291 18.7492 5.22738 18.7492 5.77859V14.249C18.7492 14.8002 18.4552 15.3147 17.9775 15.5903L10.6463 19.8346C10.4074 19.9449 10.1318 20 9.8746 20ZM12.1346 14.1755C8.91915 14.1755 8.25769 12.7056 8.25769 11.4561C8.25769 11.3459 8.34956 11.2356 8.47818 11.2356H9.43363C9.54387 11.2356 9.63574 11.3091 9.63574 11.4194C9.78273 12.3932 10.2053 12.8709 12.153 12.8709C13.6964 12.8709 14.3578 12.5218 14.3578 11.695C14.3578 11.2173 14.1741 10.8682 11.7671 10.6293C9.76435 10.4272 8.51493 9.98622 8.51493 8.38769C8.51493 6.8994 9.76436 6.01746 11.859 6.01746C14.2108 6.01746 15.3684 6.82591 15.5154 8.5898C15.5154 8.64492 15.497 8.70005 15.4603 8.75517C15.4235 8.79191 15.3684 8.82866 15.3133 8.82866H14.3578C14.266 8.82866 14.1741 8.75517 14.1557 8.6633C13.9352 7.65273 13.3656 7.322 11.859 7.322C10.1686 7.322 9.96647 7.90997 9.96647 8.35094C9.96647 8.88378 10.2053 9.04915 12.4837 9.34313C14.7437 9.63711 15.8094 10.0597 15.8094 11.6399C15.791 13.2568 14.4681 14.1755 12.1346 14.1755Z" fill="#2BB639"/>
</svg>
