<svg width="20" height="20" viewBox="0 0 20 20" fill="none" xmlns="http://www.w3.org/2000/svg">
<g clip-path="url(#clip0_96_3926)">
<path fill-rule="evenodd" clip-rule="evenodd" d="M20 10C20 15.5228 15.5228 20 10 20C6.22463 20 2.9379 17.9078 1.23598 14.8197C5.00648 14.3392 8.94449 12.9057 11.8336 10.6047C12.4266 10.1325 11.9109 9.41034 11.3115 9.70197C7.73736 11.3303 3.89769 12.2193 0.291579 12.407C0.101073 11.636 0 10.8298 0 10C0 4.47715 4.47715 0 10 0C15.5228 0 20 4.47715 20 10ZM9.10723 8.61181C10.2803 8.45905 12.8713 8.12576 13.3353 8.76457C13.7994 9.38951 12.8197 12.0281 12.3814 13.2016C12.2525 13.5557 12.5361 13.6946 12.8326 13.4238C14.7662 11.674 15.2689 8.0216 14.8758 7.48694C14.4761 6.96616 11.0859 6.51482 9.02345 8.07715C8.70118 8.32712 8.75919 8.66042 9.10723 8.61181Z" fill="#2BB639"/>
</g>
<defs>
<clipPath id="clip0_96_3926">
<rect width="20" height="20" fill="white"/>
</clipPath>
</defs>
</svg>
