<svg width="20" height="20" viewBox="0 0 20 20" fill="none" xmlns="http://www.w3.org/2000/svg">
<g clip-path="url(#clip0_96_3799)">
<path fill-rule="evenodd" clip-rule="evenodd" d="M8.8522 4.87436H10.9239V3H8.8522V4.87436ZM4.01832 7.14333H6.04066V5.26897H4.01832V7.14333ZM6.43526 7.14333H8.50692V5.26897H6.43526V7.14333ZM8.8522 7.14333H10.9239V5.26897H8.8522V7.14333ZM1.55205 9.41229H3.62371V7.53793H1.55205V9.41229ZM4.01832 9.41229H6.04066V7.53793H4.01832V9.41229ZM6.43526 9.41229H8.50692V7.53793H6.43526V9.41229ZM8.8522 9.41229H10.9239V7.53793H8.8522V9.41229ZM11.3185 9.41229H13.3901V7.53793H11.3185V9.41229ZM17.2871 8.03166C19.1121 7.73571 20 8.57424 20 8.57424C20 8.57424 19.4574 10.6952 16.8925 10.4979C15.1661 14.6413 11.516 16.9102 6.63284 16.9102C-0.174057 16.9102 -0.174058 10.6952 0.072569 9.75805H13.637C14.3769 9.75805 14.8702 9.56075 15.1661 9.41277C14.1303 7.48908 15.5607 5.76269 15.5607 5.76269C15.5607 5.76269 17.0898 6.60123 17.2871 8.03166Z" fill="#121212"/>
</g>
<defs>
<clipPath id="clip0_96_3799">
<rect width="20" height="20" fill="white"/>
</clipPath>
</defs>
</svg>
