<svg width="20" height="20" viewBox="0 0 20 20" fill="none" xmlns="http://www.w3.org/2000/svg">
<g clip-path="url(#clip0_96_3904)">
<path fill-rule="evenodd" clip-rule="evenodd" d="M1.95312 0H18.0469C19.1256 0 20 0.874444 20 1.95312V18.0469C20 19.1256 19.1256 20 18.0469 20H1.95312C0.874444 20 0 19.1256 0 18.0469V1.95312C0 0.874444 0.874444 0 1.95312 0ZM12.3804 17.8705V15.915C12.735 16.2124 13.1202 16.4355 13.5359 16.5841C13.9516 16.7329 14.3714 16.8072 14.7952 16.8072C15.0439 16.8072 15.2609 16.7848 15.4463 16.74C15.6318 16.6952 15.7866 16.633 15.9109 16.5536C16.0352 16.4741 16.128 16.3805 16.1891 16.2725C16.2502 16.1645 16.2808 16.0474 16.2808 15.9211C16.2808 15.75 16.2319 15.5972 16.1341 15.4628C16.0362 15.3284 15.9028 15.2041 15.7336 15.09C15.5645 14.976 15.3638 14.866 15.1315 14.76C14.8992 14.6541 14.6485 14.5462 14.3795 14.4362C13.6948 14.151 13.1843 13.8027 12.8481 13.3912C12.5119 12.9797 12.3438 12.4827 12.3438 11.9001C12.3438 11.4438 12.4355 11.0517 12.6189 10.7238C12.8023 10.3958 13.0519 10.1259 13.3677 9.91406C13.6836 9.70223 14.0494 9.54641 14.4651 9.4466C14.8808 9.3468 15.321 9.29688 15.7856 9.29688C16.2421 9.29688 16.6466 9.32438 16.9991 9.37938C17.3517 9.43437 17.6767 9.51891 17.9742 9.63297V11.4602C17.8275 11.3583 17.6675 11.2687 17.4943 11.1912C17.3211 11.1139 17.1428 11.0497 16.9594 10.9987C16.776 10.9479 16.5936 10.9102 16.4122 10.8857C16.2309 10.8613 16.0587 10.8491 15.8957 10.8491C15.6715 10.8491 15.4677 10.8704 15.2843 10.9132C15.1009 10.956 14.9461 11.0161 14.8197 11.0935C14.6934 11.1709 14.5955 11.2636 14.5263 11.3715C14.457 11.4795 14.4223 11.6007 14.4223 11.7351C14.4223 11.8818 14.4611 12.0132 14.5385 12.1293C14.6159 12.2454 14.7259 12.3554 14.8686 12.4593C15.0112 12.5632 15.1845 12.665 15.3882 12.7648C15.592 12.8646 15.8223 12.9675 16.0791 13.0734C16.4296 13.2201 16.7444 13.3759 17.0236 13.5409C17.3028 13.7059 17.5422 13.8923 17.7419 14.1001C17.9416 14.3079 18.0945 14.5452 18.2004 14.812C18.3064 15.0788 18.3594 15.3895 18.3594 15.7439C18.3594 16.2328 18.2666 16.6432 18.0812 16.9752C17.8958 17.3073 17.6441 17.5762 17.3262 17.7819C17.0083 17.9876 16.6384 18.1353 16.2166 18.2249C15.7948 18.3146 15.3495 18.3594 14.8808 18.3594C14.3999 18.3594 13.9424 18.3186 13.5084 18.2371C13.0743 18.1557 12.6983 18.0335 12.3804 17.8705ZM11.6016 11.097H9.09297V18.2422H7.1057V11.097H4.60938V9.49219H11.6016V11.097Z" fill="#2BB639"/>
</g>
<defs>
<clipPath id="clip0_96_3904">
<rect width="20" height="20" fill="white"/>
</clipPath>
</defs>
</svg>
