<svg width="20" height="20" viewBox="0 0 20 20" fill="none" xmlns="http://www.w3.org/2000/svg">
<path fill-rule="evenodd" clip-rule="evenodd" d="M3.65569 0.49744C4.11684 0.233926 4.68296 0.233926 5.14411 0.49744L8.14797 2.21393C8.30376 2.30295 8.3999 2.46863 8.3999 2.64805V9.78646L10.8999 8.35789V4.14805C10.8999 3.9634 11.0017 3.79377 11.1646 3.70688L14.444 1.95786C14.8852 1.72256 15.4146 1.72256 15.8558 1.95786L19.1352 3.70688C19.2981 3.79377 19.3999 3.9634 19.3999 4.14805V8.05757C19.3999 8.60398 19.1028 9.10717 18.6243 9.37105L15.6499 11.0115V14.0918C15.6499 14.6106 15.3818 15.0926 14.9409 15.3662L8.16358 19.5729C7.99966 19.6746 7.79182 19.673 7.62952 19.5686L1.08877 15.3639C0.659432 15.0879 0.399902 14.6125 0.399902 14.1021V2.64805C0.399902 2.46863 0.496045 2.30295 0.651833 2.21393L3.65569 0.49744ZM14.6499 9.86948L11.8999 8.35281V4.98139L14.6499 6.44805V9.86948ZM15.6499 6.44805V9.86948L18.1414 8.49539C18.3009 8.40743 18.3999 8.2397 18.3999 8.05757V4.98139L15.6499 6.44805ZM17.8374 4.14805L15.1499 5.58139L12.4624 4.14805L14.9146 2.84021C15.0617 2.76178 15.2381 2.76178 15.3852 2.84021L17.8374 4.14805ZM11.4042 9.22145L5.32571 12.6949L7.92135 14.5489L14.1549 10.7385L11.4042 9.22145ZM7.3999 15.4054L4.10928 13.0549C3.97789 12.9611 3.8999 12.8095 3.8999 12.6481V4.93821L1.3999 3.50964V14.1021C1.3999 14.2722 1.48641 14.4307 1.62952 14.5227L7.3999 18.2322V15.4054ZM8.3999 18.2492V15.4284L14.6499 11.6079V14.0918C14.6499 14.2647 14.5605 14.4254 14.4136 14.5166L8.3999 18.2492ZM1.90768 2.64805L4.3999 4.07218L6.89212 2.64805L4.64797 1.36568C4.49426 1.27785 4.30555 1.27785 4.15183 1.36568L1.90768 2.64805ZM7.3999 3.50964L4.8999 4.93821V11.7865L7.3999 10.3579V3.50964Z" fill="#121212"/>
</svg>
