<svg width="20" height="20" viewBox="0 0 20 20" fill="none" xmlns="http://www.w3.org/2000/svg">
<path d="M16.4435 6.77981C16.2304 6.70703 16.0159 6.63926 15.7998 6.57648C15.8356 6.43065 15.8686 6.28399 15.8989 6.1365C16.3864 3.76577 16.0677 1.85585 14.9798 1.22712C13.9382 0.623814 12.2299 1.25254 10.5066 2.75581C10.3372 2.90414 10.1712 3.05691 10.0087 3.21412C9.90042 3.10968 9.78931 3.00746 9.67543 2.90747C7.86926 1.30004 6.05891 0.62298 4.97229 1.25379C3.93067 1.85835 3.6211 3.65369 4.05983 5.90068C4.10372 6.12289 4.15302 6.34413 4.20774 6.5644C3.9515 6.63731 3.70401 6.71523 3.46736 6.79772C1.35244 7.53728 0 8.69681 0 9.89926C0 11.1417 1.45161 12.3875 3.65693 13.1429C3.83581 13.2037 4.01636 13.2602 4.19858 13.3125C4.13941 13.5483 4.08705 13.7867 4.0415 14.0278C3.62485 16.2361 3.94984 17.9889 4.98938 18.5897C6.06308 19.2101 7.86426 18.5726 9.62002 17.0352C9.7589 16.9136 9.89778 16.7851 10.0367 16.6498C10.2122 16.8195 10.3928 16.9842 10.5783 17.144C12.2782 18.6097 13.9569 19.2018 14.9948 18.5993C16.0677 17.9768 16.4164 16.0936 15.9635 13.8024C15.9288 13.6274 15.8888 13.4488 15.8435 13.2666C15.9702 13.2291 16.0942 13.1904 16.2156 13.1504C18.5071 12.3892 20 11.1584 20 9.90051C19.9992 8.69223 18.6034 7.52519 16.4435 6.77981ZM11.0687 3.40161C12.5449 2.11375 13.9248 1.60544 14.554 1.96876C15.2235 2.35582 15.4839 3.91659 15.0631 5.96359C15.0353 6.09692 15.0053 6.22983 14.9731 6.36232C14.0922 6.16195 13.1988 6.02053 12.2991 5.93901C11.7839 5.1969 11.2192 4.49046 10.6087 3.82451C10.7582 3.67952 10.9112 3.53855 11.0679 3.40161H11.0687ZM5.90517 10.9267C6.086 11.2767 6.27502 11.6224 6.47223 11.9638C6.67306 12.3121 6.88235 12.6553 7.10012 12.9933C6.48101 12.926 5.86578 12.8268 5.25686 12.6962C5.43352 12.1246 5.65101 11.5309 5.90517 10.9267ZM5.90517 8.91305C5.65518 8.32183 5.44352 7.74018 5.26978 7.17854C5.84059 7.05063 6.4489 6.94605 7.08304 6.86689C6.87055 7.19854 6.66611 7.53505 6.46973 7.87643C6.27335 8.2178 6.08475 8.56334 5.90392 8.91305H5.90517ZM6.35932 9.92009C6.62264 9.37095 6.90624 8.83236 7.21012 8.30433C7.51371 7.77657 7.8369 7.2609 8.17966 6.75731C8.77464 6.71231 9.38461 6.68856 10.0008 6.68856C10.6171 6.68856 11.2308 6.71231 11.8253 6.75772C12.1645 7.2602 12.4857 7.77407 12.7891 8.29933C13.0924 8.82458 13.3797 9.36067 13.6511 9.90759C13.3833 10.4587 13.0967 10.9995 12.7911 11.53C12.4881 12.0578 12.1687 12.575 11.8328 13.0816C11.2391 13.1233 10.6246 13.1462 9.99958 13.1462C9.37461 13.1462 8.77172 13.1266 8.18883 13.0887C7.84356 12.5835 7.51774 12.0656 7.21137 11.535C6.90499 11.0045 6.62056 10.4662 6.35807 9.92009H6.35932ZM13.5307 11.9579C13.7321 11.6085 13.9254 11.2545 14.1107 10.8959C14.3646 11.4717 14.5888 12.0603 14.7823 12.6591C14.1662 12.7979 13.5433 12.9043 12.9161 12.9779C13.1278 12.6421 13.3326 12.3021 13.5307 11.9579ZM14.1023 8.91347C13.9179 8.56209 13.7261 8.21489 13.5269 7.87184C13.3325 7.53353 13.1299 7.19937 12.919 6.86939C13.5569 6.95022 14.169 7.05771 14.7427 7.18896C14.5583 7.77415 14.3445 8.34971 14.1023 8.91347ZM10.0092 4.43657C10.4252 4.89118 10.8181 5.36648 11.1862 5.86068C10.3987 5.82318 9.61071 5.82318 8.82213 5.86068C9.21087 5.34653 9.60877 4.86947 10.0092 4.43657ZM5.40228 1.99417C6.07141 1.60586 7.55094 2.16083 9.11045 3.54702C9.21003 3.63577 9.31045 3.72868 9.41044 3.82493C8.79687 4.49079 8.22814 5.19661 7.70801 5.93776C6.81024 6.01865 5.91867 6.15782 5.03896 6.35441C4.98813 6.14997 4.94229 5.94415 4.90146 5.73693C4.52439 3.81076 4.77397 2.35874 5.40228 1.99417ZM4.4269 12.4875C4.26024 12.44 4.09566 12.3885 3.93317 12.3329C2.95821 11.9996 2.15283 11.5646 1.59993 11.0909C1.10495 10.6663 0.854131 10.2426 0.854131 9.89926C0.854131 9.16971 1.93992 8.23891 3.75068 7.60769C3.97817 7.52853 4.2076 7.45617 4.43898 7.39061C4.70791 8.25487 5.0336 9.10042 5.41394 9.92176C5.02907 10.7545 4.69934 11.6115 4.4269 12.4875ZM9.05712 16.3902C8.28091 17.0702 7.50344 17.5523 6.81805 17.7952C6.20224 18.0131 5.71184 18.0193 5.41561 17.8481C4.7848 17.4835 4.52231 16.0757 4.88021 14.1874C4.92271 13.9652 4.97132 13.743 5.02604 13.5208C5.91456 13.7122 6.81508 13.8429 7.72135 13.912C8.24655 14.657 8.81998 15.3668 9.43794 16.0369C9.31378 16.159 9.1867 16.2765 9.05712 16.3902ZM10.0329 15.4228C9.62793 14.9849 9.22378 14.5003 8.82963 13.9795C9.21267 13.9945 9.60266 14.002 9.99958 14.002C10.4071 14.002 10.8104 13.9933 11.2079 13.9753C10.8411 14.4775 10.4489 14.9606 10.0329 15.4228ZM15.221 16.614C15.1019 17.2573 14.8623 17.6864 14.5661 17.8581C13.9357 18.2239 12.5878 17.7485 11.1345 16.4948C10.9679 16.3515 10.8012 16.1978 10.6316 16.0365C11.2376 15.3638 11.7976 14.6511 12.3078 13.9033C13.2191 13.8261 14.124 13.6861 15.016 13.4845C15.0569 13.6495 15.093 13.8112 15.1244 13.9695C15.3248 14.982 15.3535 15.8978 15.221 16.614ZM15.946 12.3375C15.8368 12.3737 15.7243 12.4087 15.6102 12.4429C15.3305 11.5746 14.9921 10.7263 14.5973 9.90384C14.9773 9.09238 15.3024 8.25638 15.5706 7.40145C15.7752 7.46103 15.9739 7.52353 16.1652 7.58977C18.0159 8.22808 19.145 9.17304 19.145 9.89926C19.145 10.6742 17.9255 11.68 15.946 12.3375Z" fill="#121212"/>
<path d="M10.0001 11.6886C10.3547 11.6898 10.7017 11.5857 10.9971 11.3895C11.2924 11.1934 11.523 10.914 11.6595 10.5867C11.796 10.2594 11.8323 9.89904 11.7638 9.55112C11.6954 9.2032 11.5252 8.88342 11.2749 8.63228C11.0245 8.38114 10.7053 8.20993 10.3576 8.14032C10.0099 8.07072 9.6494 8.10586 9.32169 8.24129C8.99398 8.37671 8.71383 8.60634 8.51671 8.90109C8.31958 9.19584 8.21436 9.54246 8.21436 9.89705C8.21387 10.132 8.25968 10.3647 8.34917 10.5819C8.43867 10.7991 8.5701 10.9965 8.73594 11.1629C8.90179 11.3293 9.0988 11.4614 9.31571 11.5516C9.53263 11.6418 9.7652 11.6884 10.0001 11.6886Z" fill="#121212"/>
</svg>
