<svg width="20" height="20" viewBox="0 0 20 20" fill="none" xmlns="http://www.w3.org/2000/svg">
<path fill-rule="evenodd" clip-rule="evenodd" d="M9.66513 4.94819C9.49513 3.5922 10.4131 0.642195 13.6331 0.200195C14.0051 2.4722 12.1411 5.0822 9.66513 4.94819ZM17.6209 6.63445C17.67 6.68226 17.7193 6.73023 17.7689 6.77829C16.6509 7.62829 15.4629 8.84829 15.6009 10.7823C15.7709 12.7143 17.0589 13.8663 18.3469 14.5463C18.3469 15.7323 16.1449 19.4303 13.8049 19.7683C13.1192 19.8691 12.676 19.6614 12.1837 19.4306C11.6994 19.2036 11.1677 18.9543 10.3109 18.9543C9.64135 18.9543 9.19993 19.1426 8.73337 19.3416C8.22989 19.5564 7.69713 19.7837 6.81686 19.8003C4.40886 19.8003 1.83286 14.6803 1.66086 10.9823C1.49086 7.55829 3.62886 5.11629 6.06886 4.84629C7.78173 4.66151 8.41504 4.9888 8.95285 5.26674C9.29984 5.44606 9.60708 5.60484 10.1389 5.59229C10.8282 5.57624 11.3504 5.35641 11.874 5.13598C12.4593 4.88957 13.0464 4.6424 13.8709 4.67829C15.7097 4.77357 16.6299 5.66954 17.6209 6.63445Z" fill="#2BB639"/>
</svg>
