<svg width="20" height="20" viewBox="0 0 20 20" fill="none" xmlns="http://www.w3.org/2000/svg">
<g clip-path="url(#clip0_96_3818)">
<path fill-rule="evenodd" clip-rule="evenodd" d="M15 2.5C15 1.11929 12.7614 0 10 0C7.23858 0 5 1.11929 5 2.5V4H10V5H5H2.5C1.11929 5 0 7.23858 0 10C0 12.7614 1.11929 15 2.5 15H3.8999C3.8999 13.7368 3.98279 12.7509 4.1851 11.9881C4.38952 11.2173 4.72602 10.6367 5.2593 10.2346C5.78478 9.8383 6.43705 9.66479 7.16372 9.58176C7.87941 9.49999 8.73485 9.49999 9.70665 9.5H9.73468C10.8722 9.5 11.7676 9.49934 12.4908 9.42484C13.2131 9.35043 13.6909 9.20798 14.0271 8.97322C14.3497 8.74798 14.6044 8.39329 14.7786 7.7643C14.956 7.124 15.039 6.2377 15.039 5H15V2.5ZM16.0999 5C16.0999 6.2623 16.0172 7.251 15.805 8.01694C15.5897 8.79421 15.2311 9.37702 14.6586 9.77678C14.0997 10.167 13.4006 10.3371 12.6061 10.4189C11.8189 10.5 10.8667 10.5 9.76128 10.5H9.73468C8.72894 10.5 7.93635 10.5008 7.29138 10.5745C6.65053 10.6477 6.22535 10.7867 5.92202 11.0154C5.6265 11.2383 5.38284 11.5952 5.2143 12.2306C5.04364 12.8741 4.96077 13.7632 4.96077 15H5V17.5C5 18.8807 7.23858 20 10 20C12.7614 20 15 18.8807 15 17.5V16H10V15H15H17.5C18.8807 15 20 12.7614 20 10C20 7.23858 18.8807 5 17.5 5H16.0999ZM8.17495 2.5002C8.17495 3.01106 7.76081 3.4252 7.24995 3.4252C6.73909 3.4252 6.32495 3.01106 6.32495 2.5002C6.32495 1.98933 6.73909 1.5752 7.24995 1.5752C7.76081 1.5752 8.17495 1.98933 8.17495 2.5002ZM13.675 17.5002C13.675 18.0111 13.2608 18.4252 12.75 18.4252C12.2391 18.4252 11.825 18.0111 11.825 17.5002C11.825 16.9893 12.2391 16.5752 12.75 16.5752C13.2608 16.5752 13.675 16.9893 13.675 17.5002Z" fill="#121212"/>
</g>
<defs>
<clipPath id="clip0_96_3818">
<rect width="20" height="20" fill="white"/>
</clipPath>
</defs>
</svg>
